<svg xmlns="http://www.w3.org/2000/svg" viewBox="0 0 24 16"><path fill="#fff" d="M0 0h24v16H0z"/><path fill="#ff9933" d="M0 0h24v5.33H0z"/><path fill="#138808" d="M0 10.67h24V16H0z"/><g fill="none" stroke="#000080" stroke-width=".18"><circle cx="12" cy="8" r="2.1"/><path d="M12 8L14.000 8.000"/><path d="M12 8L13.932 8.518"/><path d="M12 8L13.732 9.000"/><path d="M12 8L13.414 9.414"/><path d="M12 8L13.000 9.732"/><path d="M12 8L12.518 9.932"/><path d="M12 8L12.000 10.000"/><path d="M12 8L11.482 9.932"/><path d="M12 8L11.000 9.732"/><path d="M12 8L10.586 9.414"/><path d="M12 8L10.268 9.000"/><path d="M12 8L10.068 8.518"/><path d="M12 8L10.000 8.000"/><path d="M12 8L10.068 7.482"/><path d="M12 8L10.268 7.000"/><path d="M12 8L10.586 6.586"/><path d="M12 8L11.000 6.268"/><path d="M12 8L11.482 6.068"/><path d="M12 8L12.000 6.000"/><path d="M12 8L12.518 6.068"/><path d="M12 8L13.000 6.268"/><path d="M12 8L13.414 6.586"/><path d="M12 8L13.732 7.000"/><path d="M12 8L13.932 7.482"/></g></svg>